<svg width="122" height="20" viewBox="0 0 122 20" fill="none" xmlns="http://www.w3.org/2000/svg">
<rect width="122" height="20" rx="6" fill="#7DF0BA"/>
<path d="M11.852 10.626C12.416 10.626 12.828 10.49 13.088 10.218C13.352 9.946 13.484 9.574 13.484 9.102C13.484 8.886 13.45 8.69 13.382 8.514C13.318 8.334 13.218 8.182 13.082 8.058C12.95 7.93 12.782 7.832 12.578 7.764C12.374 7.696 12.132 7.662 11.852 7.662H10.712V10.626H11.852ZM11.852 6.294C12.448 6.294 12.962 6.364 13.394 6.504C13.83 6.644 14.188 6.84 14.468 7.092C14.748 7.34 14.954 7.636 15.086 7.98C15.222 8.324 15.29 8.698 15.29 9.102C15.29 9.53 15.22 9.922 15.08 10.278C14.94 10.634 14.728 10.94 14.444 11.196C14.16 11.452 13.802 11.652 13.37 11.796C12.938 11.936 12.432 12.006 11.852 12.006H10.712V15H8.912V6.294H11.852ZM18.2637 6.054V15H16.6077V6.054H18.2637ZM23.2766 12.414C22.8726 12.434 22.5366 12.47 22.2686 12.522C22.0006 12.57 21.7866 12.634 21.6266 12.714C21.4706 12.794 21.3586 12.886 21.2906 12.99C21.2266 13.09 21.1946 13.2 21.1946 13.32C21.1946 13.56 21.2606 13.73 21.3926 13.83C21.5286 13.93 21.7166 13.98 21.9566 13.98C22.2326 13.98 22.4706 13.932 22.6706 13.836C22.8746 13.736 23.0766 13.582 23.2766 13.374V12.414ZM19.9046 9.672C20.2686 9.344 20.6706 9.1 21.1106 8.94C21.5506 8.776 22.0266 8.694 22.5386 8.694C22.9066 8.694 23.2346 8.754 23.5226 8.874C23.8146 8.994 24.0606 9.162 24.2606 9.378C24.4646 9.59 24.6206 9.844 24.7286 10.14C24.8366 10.436 24.8906 10.76 24.8906 11.112V15H24.1346C23.9786 15 23.8586 14.978 23.7746 14.934C23.6946 14.89 23.6286 14.798 23.5766 14.658L23.4446 14.262C23.2886 14.398 23.1366 14.518 22.9886 14.622C22.8446 14.726 22.6946 14.814 22.5386 14.886C22.3826 14.954 22.2146 15.006 22.0346 15.042C21.8586 15.078 21.6606 15.096 21.4406 15.096C21.1686 15.096 20.9206 15.06 20.6966 14.988C20.4726 14.916 20.2786 14.81 20.1146 14.67C19.9546 14.526 19.8306 14.348 19.7426 14.136C19.6546 13.924 19.6106 13.68 19.6106 13.404C19.6106 13.176 19.6686 12.948 19.7846 12.72C19.9006 12.492 20.0986 12.286 20.3786 12.102C20.6626 11.914 21.0386 11.76 21.5066 11.64C21.9786 11.516 22.5686 11.446 23.2766 11.43V11.112C23.2766 10.724 23.1946 10.44 23.0306 10.26C22.8666 10.076 22.6306 9.984 22.3226 9.984C22.0946 9.984 21.9046 10.012 21.7526 10.068C21.6006 10.12 21.4666 10.178 21.3506 10.242C21.2386 10.302 21.1326 10.36 21.0326 10.416C20.9326 10.468 20.8166 10.494 20.6846 10.494C20.5686 10.494 20.4706 10.466 20.3906 10.41C20.3146 10.35 20.2506 10.28 20.1986 10.2L19.9046 9.672ZM28.1192 9.534C28.2432 9.414 28.3712 9.304 28.5032 9.204C28.6392 9.104 28.7812 9.018 28.9292 8.946C29.0812 8.874 29.2432 8.818 29.4152 8.778C29.5912 8.738 29.7812 8.718 29.9852 8.718C30.3212 8.718 30.6192 8.776 30.8792 8.892C31.1392 9.008 31.3572 9.17 31.5332 9.378C31.7132 9.586 31.8472 9.834 31.9352 10.122C32.0272 10.41 32.0732 10.726 32.0732 11.07V15H30.4232V11.07C30.4232 10.726 30.3432 10.46 30.1832 10.272C30.0232 10.08 29.7872 9.984 29.4752 9.984C29.2432 9.984 29.0252 10.034 28.8212 10.134C28.6172 10.234 28.4232 10.374 28.2392 10.554V15H26.5832V8.814H27.6032C27.8112 8.814 27.9492 8.91 28.0172 9.102L28.1192 9.534ZM38.5935 9.834C38.7895 9.482 39.0155 9.204 39.2715 9C39.5275 8.796 39.8275 8.694 40.1715 8.694C40.4515 8.694 40.6795 8.76 40.8555 8.892L40.7475 10.116C40.7275 10.196 40.6955 10.252 40.6515 10.284C40.6115 10.312 40.5555 10.326 40.4835 10.326C40.4195 10.326 40.3275 10.318 40.2075 10.302C40.0875 10.282 39.9755 10.272 39.8715 10.272C39.7195 10.272 39.5835 10.294 39.4635 10.338C39.3475 10.382 39.2435 10.444 39.1515 10.524C39.0595 10.604 38.9755 10.702 38.8995 10.818C38.8275 10.934 38.7595 11.066 38.6955 11.214V15H37.0395V8.814H38.0175C38.1855 8.814 38.3015 8.844 38.3655 8.904C38.4295 8.964 38.4755 9.068 38.5035 9.216L38.5935 9.834ZM45.7463 11.178C45.7463 11.006 45.7223 10.842 45.6743 10.686C45.6303 10.53 45.5583 10.392 45.4583 10.272C45.3583 10.152 45.2323 10.058 45.0803 9.99C44.9283 9.918 44.7463 9.882 44.5343 9.882C44.1383 9.882 43.8283 9.994 43.6043 10.218C43.3803 10.442 43.2343 10.762 43.1663 11.178H45.7463ZM43.1423 12.162C43.1943 12.742 43.3583 13.166 43.6343 13.434C43.9143 13.702 44.2783 13.836 44.7263 13.836C44.9543 13.836 45.1503 13.81 45.3143 13.758C45.4823 13.702 45.6283 13.642 45.7523 13.578C45.8803 13.51 45.9943 13.45 46.0943 13.398C46.1983 13.342 46.3003 13.314 46.4003 13.314C46.5283 13.314 46.6283 13.362 46.7003 13.458L47.1803 14.058C47.0043 14.262 46.8103 14.432 46.5983 14.568C46.3863 14.7 46.1663 14.806 45.9383 14.886C45.7103 14.962 45.4803 15.014 45.2483 15.042C45.0163 15.074 44.7923 15.09 44.5763 15.09C44.1443 15.09 43.7403 15.02 43.3643 14.88C42.9923 14.736 42.6663 14.526 42.3863 14.25C42.1103 13.97 41.8923 13.624 41.7323 13.212C41.5723 12.8 41.4923 12.322 41.4923 11.778C41.4923 11.358 41.5603 10.962 41.6963 10.59C41.8363 10.218 42.0363 9.894 42.2963 9.618C42.5563 9.342 42.8723 9.124 43.2443 8.964C43.6163 8.8 44.0363 8.718 44.5043 8.718C44.9003 8.718 45.2643 8.782 45.5963 8.91C45.9323 9.034 46.2203 9.216 46.4603 9.456C46.7043 9.696 46.8923 9.992 47.0243 10.344C47.1603 10.692 47.2283 11.09 47.2283 11.538C47.2283 11.662 47.2223 11.764 47.2103 11.844C47.1983 11.924 47.1783 11.988 47.1503 12.036C47.1223 12.084 47.0843 12.118 47.0363 12.138C46.9883 12.154 46.9263 12.162 46.8503 12.162H43.1423ZM53.1439 10.194C53.0959 10.258 53.0479 10.308 52.9999 10.344C52.9519 10.376 52.8839 10.392 52.7959 10.392C52.7159 10.392 52.6379 10.37 52.5619 10.326C52.4899 10.278 52.4059 10.228 52.3099 10.176C52.2139 10.12 52.0999 10.07 51.9679 10.026C51.8359 9.978 51.6719 9.954 51.4759 9.954C51.2279 9.954 51.0119 10 50.8279 10.092C50.6479 10.18 50.4979 10.308 50.3779 10.476C50.2579 10.644 50.1679 10.848 50.1079 11.088C50.0519 11.328 50.0239 11.598 50.0239 11.898C50.0239 12.53 50.1499 13.014 50.4019 13.35C50.6579 13.686 51.0059 13.854 51.4459 13.854C51.5979 13.854 51.7279 13.842 51.8359 13.818C51.9479 13.79 52.0439 13.756 52.1239 13.716C52.2079 13.676 52.2799 13.632 52.3399 13.584C52.3999 13.536 52.4559 13.492 52.5079 13.452C52.5639 13.412 52.6179 13.38 52.6699 13.356C52.7259 13.328 52.7879 13.314 52.8559 13.314C52.9839 13.314 53.0839 13.362 53.1559 13.458L53.6299 14.058C53.4539 14.262 53.2659 14.432 53.0659 14.568C52.8659 14.7 52.6579 14.806 52.4419 14.886C52.2299 14.962 52.0139 15.014 51.7939 15.042C51.5739 15.074 51.3559 15.09 51.1399 15.09C50.7599 15.09 50.3999 15.02 50.0599 14.88C49.7199 14.736 49.4219 14.528 49.1659 14.256C48.9099 13.984 48.7059 13.65 48.5539 13.254C48.4059 12.858 48.3319 12.406 48.3319 11.898C48.3319 11.446 48.3979 11.026 48.5299 10.638C48.6619 10.25 48.8559 9.914 49.1119 9.63C49.3679 9.346 49.6839 9.124 50.0599 8.964C50.4399 8.8 50.8779 8.718 51.3739 8.718C51.8459 8.718 52.2599 8.794 52.6159 8.946C52.9719 9.098 53.2919 9.318 53.5759 9.606L53.1439 10.194ZM57.5529 8.718C58.0169 8.718 58.4389 8.792 58.8189 8.94C59.1989 9.088 59.5249 9.3 59.7969 9.576C60.0689 9.848 60.2789 10.18 60.4269 10.572C60.5749 10.964 60.6489 11.406 60.6489 11.898C60.6489 12.39 60.5749 12.834 60.4269 13.23C60.2789 13.622 60.0689 13.956 59.7969 14.232C59.5249 14.508 59.1989 14.72 58.8189 14.868C58.4389 15.016 58.0169 15.09 57.5529 15.09C57.0849 15.09 56.6589 15.016 56.2749 14.868C55.8949 14.72 55.5689 14.508 55.2969 14.232C55.0249 13.956 54.8129 13.622 54.6609 13.23C54.5129 12.834 54.4389 12.39 54.4389 11.898C54.4389 11.406 54.5129 10.964 54.6609 10.572C54.8129 10.18 55.0249 9.848 55.2969 9.576C55.5689 9.3 55.8949 9.088 56.2749 8.94C56.6589 8.792 57.0849 8.718 57.5529 8.718ZM57.5529 13.848C58.0249 13.848 58.3749 13.686 58.6029 13.362C58.8309 13.034 58.9449 12.548 58.9449 11.904C58.9449 11.264 58.8309 10.782 58.6029 10.458C58.3749 10.13 58.0249 9.966 57.5529 9.966C57.0689 9.966 56.7129 10.13 56.4849 10.458C56.2569 10.782 56.1429 11.264 56.1429 11.904C56.1429 12.548 56.2569 13.034 56.4849 13.362C56.7129 13.686 57.0689 13.848 57.5529 13.848ZM62.0887 15V8.814H63.1087C63.3167 8.814 63.4547 8.91 63.5227 9.102L63.6187 9.504C63.7267 9.392 63.8367 9.288 63.9487 9.192C64.0647 9.096 64.1887 9.014 64.3207 8.946C64.4527 8.874 64.5947 8.818 64.7467 8.778C64.9027 8.738 65.0707 8.718 65.2507 8.718C65.6307 8.718 65.9447 8.82 66.1927 9.024C66.4407 9.224 66.6287 9.492 66.7567 9.828C66.8567 9.632 66.9787 9.464 67.1227 9.324C67.2707 9.18 67.4307 9.064 67.6027 8.976C67.7787 8.888 67.9627 8.824 68.1547 8.784C68.3507 8.74 68.5467 8.718 68.7427 8.718C69.0907 8.718 69.3987 8.77 69.6667 8.874C69.9347 8.978 70.1587 9.132 70.3387 9.336C70.5227 9.536 70.6627 9.782 70.7587 10.074C70.8547 10.366 70.9027 10.698 70.9027 11.07V15H69.2467V11.07C69.2467 10.346 68.9367 9.984 68.3167 9.984C68.1767 9.984 68.0467 10.008 67.9267 10.056C67.8107 10.1 67.7067 10.168 67.6147 10.26C67.5267 10.352 67.4567 10.466 67.4047 10.602C67.3567 10.738 67.3327 10.894 67.3327 11.07V15H65.6767V11.07C65.6767 10.678 65.5987 10.4 65.4427 10.236C65.2907 10.068 65.0647 9.984 64.7647 9.984C64.5727 9.984 64.3907 10.03 64.2187 10.122C64.0507 10.21 63.8927 10.334 63.7447 10.494V15H62.0887ZM76.5377 11.178C76.5377 11.006 76.5137 10.842 76.4657 10.686C76.4217 10.53 76.3497 10.392 76.2497 10.272C76.1497 10.152 76.0237 10.058 75.8717 9.99C75.7197 9.918 75.5377 9.882 75.3257 9.882C74.9297 9.882 74.6197 9.994 74.3957 10.218C74.1717 10.442 74.0257 10.762 73.9577 11.178H76.5377ZM73.9337 12.162C73.9857 12.742 74.1497 13.166 74.4257 13.434C74.7057 13.702 75.0697 13.836 75.5177 13.836C75.7457 13.836 75.9417 13.81 76.1057 13.758C76.2737 13.702 76.4197 13.642 76.5437 13.578C76.6717 13.51 76.7857 13.45 76.8857 13.398C76.9897 13.342 77.0917 13.314 77.1917 13.314C77.3197 13.314 77.4197 13.362 77.4917 13.458L77.9717 14.058C77.7957 14.262 77.6017 14.432 77.3897 14.568C77.1777 14.7 76.9577 14.806 76.7297 14.886C76.5017 14.962 76.2717 15.014 76.0397 15.042C75.8077 15.074 75.5837 15.09 75.3677 15.09C74.9357 15.09 74.5317 15.02 74.1557 14.88C73.7837 14.736 73.4577 14.526 73.1777 14.25C72.9017 13.97 72.6837 13.624 72.5237 13.212C72.3637 12.8 72.2837 12.322 72.2837 11.778C72.2837 11.358 72.3517 10.962 72.4877 10.59C72.6277 10.218 72.8277 9.894 73.0877 9.618C73.3477 9.342 73.6637 9.124 74.0357 8.964C74.4077 8.8 74.8277 8.718 75.2957 8.718C75.6917 8.718 76.0557 8.782 76.3877 8.91C76.7237 9.034 77.0117 9.216 77.2517 9.456C77.4957 9.696 77.6837 9.992 77.8157 10.344C77.9517 10.692 78.0197 11.09 78.0197 11.538C78.0197 11.662 78.0137 11.764 78.0017 11.844C77.9897 11.924 77.9697 11.988 77.9417 12.036C77.9137 12.084 77.8757 12.118 77.8277 12.138C77.7797 12.154 77.7177 12.162 77.6417 12.162H73.9337ZM80.9833 9.534C81.1073 9.414 81.2353 9.304 81.3673 9.204C81.5033 9.104 81.6453 9.018 81.7933 8.946C81.9453 8.874 82.1073 8.818 82.2793 8.778C82.4553 8.738 82.6453 8.718 82.8493 8.718C83.1853 8.718 83.4833 8.776 83.7433 8.892C84.0033 9.008 84.2213 9.17 84.3973 9.378C84.5773 9.586 84.7113 9.834 84.7993 10.122C84.8913 10.41 84.9373 10.726 84.9373 11.07V15H83.2873V11.07C83.2873 10.726 83.2073 10.46 83.0473 10.272C82.8873 10.08 82.6513 9.984 82.3393 9.984C82.1073 9.984 81.8893 10.034 81.6853 10.134C81.4813 10.234 81.2873 10.374 81.1033 10.554V15H79.4473V8.814H80.4673C80.6753 8.814 80.8133 8.91 80.8813 9.102L80.9833 9.534ZM90.4779 10.422C90.3219 10.242 90.1519 10.116 89.9679 10.044C89.7879 9.972 89.5959 9.936 89.3919 9.936C89.1919 9.936 89.0099 9.974 88.8459 10.05C88.6819 10.126 88.5399 10.246 88.4199 10.41C88.3039 10.57 88.2139 10.776 88.1499 11.028C88.0859 11.28 88.0539 11.58 88.0539 11.928C88.0539 12.272 88.0799 12.564 88.1319 12.804C88.1839 13.044 88.2579 13.238 88.3539 13.386C88.4539 13.534 88.5739 13.642 88.7139 13.71C88.8539 13.774 89.0099 13.806 89.1819 13.806C89.4739 13.806 89.7179 13.748 89.9139 13.632C90.1139 13.516 90.3019 13.352 90.4779 13.14V10.422ZM92.1339 6.054V15H91.1139C90.9019 15 90.7659 14.904 90.7059 14.712L90.5679 14.172C90.4439 14.308 90.3119 14.432 90.1719 14.544C90.0359 14.656 89.8879 14.754 89.7279 14.838C89.5679 14.918 89.3959 14.98 89.2119 15.024C89.0279 15.068 88.8279 15.09 88.6119 15.09C88.2799 15.09 87.9759 15.02 87.6999 14.88C87.4239 14.74 87.1839 14.536 86.9799 14.268C86.7799 13.996 86.6239 13.664 86.5119 13.272C86.3999 12.88 86.3439 12.432 86.3439 11.928C86.3439 11.468 86.4059 11.04 86.5299 10.644C86.6579 10.248 86.8379 9.906 87.0699 9.618C87.3019 9.33 87.5819 9.104 87.9099 8.94C88.2379 8.776 88.6019 8.694 89.0019 8.694C89.3379 8.694 89.6199 8.744 89.8479 8.844C90.0799 8.944 90.2899 9.08 90.4779 9.252V6.054H92.1339ZM97.1453 12.414C96.7413 12.434 96.4053 12.47 96.1373 12.522C95.8693 12.57 95.6553 12.634 95.4953 12.714C95.3393 12.794 95.2273 12.886 95.1593 12.99C95.0953 13.09 95.0633 13.2 95.0633 13.32C95.0633 13.56 95.1293 13.73 95.2613 13.83C95.3973 13.93 95.5853 13.98 95.8253 13.98C96.1013 13.98 96.3393 13.932 96.5393 13.836C96.7433 13.736 96.9453 13.582 97.1453 13.374V12.414ZM93.7733 9.672C94.1373 9.344 94.5393 9.1 94.9793 8.94C95.4193 8.776 95.8953 8.694 96.4073 8.694C96.7753 8.694 97.1033 8.754 97.3913 8.874C97.6833 8.994 97.9293 9.162 98.1293 9.378C98.3333 9.59 98.4893 9.844 98.5973 10.14C98.7053 10.436 98.7593 10.76 98.7593 11.112V15H98.0033C97.8473 15 97.7273 14.978 97.6433 14.934C97.5633 14.89 97.4973 14.798 97.4453 14.658L97.3133 14.262C97.1573 14.398 97.0053 14.518 96.8573 14.622C96.7133 14.726 96.5633 14.814 96.4073 14.886C96.2513 14.954 96.0833 15.006 95.9033 15.042C95.7273 15.078 95.5293 15.096 95.3093 15.096C95.0373 15.096 94.7893 15.06 94.5653 14.988C94.3413 14.916 94.1473 14.81 93.9833 14.67C93.8233 14.526 93.6993 14.348 93.6113 14.136C93.5233 13.924 93.4793 13.68 93.4793 13.404C93.4793 13.176 93.5373 12.948 93.6533 12.72C93.7693 12.492 93.9673 12.286 94.2473 12.102C94.5313 11.914 94.9073 11.76 95.3753 11.64C95.8473 11.516 96.4373 11.446 97.1453 11.43V11.112C97.1453 10.724 97.0633 10.44 96.8993 10.26C96.7353 10.076 96.4993 9.984 96.1913 9.984C95.9633 9.984 95.7733 10.012 95.6213 10.068C95.4693 10.12 95.3353 10.178 95.2193 10.242C95.1073 10.302 95.0013 10.36 94.9013 10.416C94.8013 10.468 94.6853 10.494 94.5533 10.494C94.4373 10.494 94.3393 10.466 94.2593 10.41C94.1833 10.35 94.1193 10.28 94.0673 10.2L93.7733 9.672ZM104.274 10.422C104.118 10.242 103.948 10.116 103.764 10.044C103.584 9.972 103.392 9.936 103.188 9.936C102.988 9.936 102.806 9.974 102.642 10.05C102.478 10.126 102.336 10.246 102.216 10.41C102.1 10.57 102.01 10.776 101.946 11.028C101.882 11.28 101.85 11.58 101.85 11.928C101.85 12.272 101.876 12.564 101.928 12.804C101.98 13.044 102.054 13.238 102.15 13.386C102.25 13.534 102.37 13.642 102.51 13.71C102.65 13.774 102.806 13.806 102.978 13.806C103.27 13.806 103.514 13.748 103.71 13.632C103.91 13.516 104.098 13.352 104.274 13.14V10.422ZM105.93 6.054V15H104.91C104.698 15 104.562 14.904 104.502 14.712L104.364 14.172C104.24 14.308 104.108 14.432 103.968 14.544C103.832 14.656 103.684 14.754 103.524 14.838C103.364 14.918 103.192 14.98 103.008 15.024C102.824 15.068 102.624 15.09 102.408 15.09C102.076 15.09 101.772 15.02 101.496 14.88C101.22 14.74 100.98 14.536 100.776 14.268C100.576 13.996 100.42 13.664 100.308 13.272C100.196 12.88 100.14 12.432 100.14 11.928C100.14 11.468 100.202 11.04 100.326 10.644C100.454 10.248 100.634 9.906 100.866 9.618C101.098 9.33 101.378 9.104 101.706 8.94C102.034 8.776 102.398 8.694 102.798 8.694C103.134 8.694 103.416 8.744 103.644 8.844C103.876 8.944 104.086 9.08 104.274 9.252V6.054H105.93ZM110.497 8.718C110.961 8.718 111.383 8.792 111.763 8.94C112.143 9.088 112.469 9.3 112.741 9.576C113.013 9.848 113.223 10.18 113.371 10.572C113.519 10.964 113.593 11.406 113.593 11.898C113.593 12.39 113.519 12.834 113.371 13.23C113.223 13.622 113.013 13.956 112.741 14.232C112.469 14.508 112.143 14.72 111.763 14.868C111.383 15.016 110.961 15.09 110.497 15.09C110.029 15.09 109.603 15.016 109.219 14.868C108.839 14.72 108.513 14.508 108.241 14.232C107.969 13.956 107.757 13.622 107.605 13.23C107.457 12.834 107.383 12.39 107.383 11.898C107.383 11.406 107.457 10.964 107.605 10.572C107.757 10.18 107.969 9.848 108.241 9.576C108.513 9.3 108.839 9.088 109.219 8.94C109.603 8.792 110.029 8.718 110.497 8.718ZM110.497 13.848C110.969 13.848 111.319 13.686 111.547 13.362C111.775 13.034 111.889 12.548 111.889 11.904C111.889 11.264 111.775 10.782 111.547 10.458C111.319 10.13 110.969 9.966 110.497 9.966C110.013 9.966 109.657 10.13 109.429 10.458C109.201 10.782 109.087 11.264 109.087 11.904C109.087 12.548 109.201 13.034 109.429 13.362C109.657 13.686 110.013 13.848 110.497 13.848Z" fill="#141938"/>
</svg>
