<svg width="368" height="24" viewBox="0 0 368 24" fill="none" xmlns="http://www.w3.org/2000/svg">
<circle cx="12" cy="12" r="12" fill="#4F4FFF"/>
<path d="M14.7295 15.89V17H9.92953V15.89H11.6875V10.832C11.6875 10.632 11.6935 10.426 11.7055 10.214L10.4575 11.258C10.3855 11.314 10.3135 11.35 10.2415 11.366C10.1735 11.378 10.1075 11.378 10.0435 11.366C9.98353 11.354 9.92953 11.334 9.88153 11.306C9.83353 11.274 9.79753 11.24 9.77353 11.204L9.30553 10.562L11.9515 8.312H13.1695V15.89H14.7295Z" fill="white"/>
<path d="M45.048 12.248C45.4427 12.248 45.7867 12.2 46.08 12.104C46.3733 12.0027 46.616 11.8613 46.808 11.68C47.0053 11.4933 47.152 11.2693 47.248 11.008C47.344 10.7413 47.392 10.4453 47.392 10.12C47.392 9.81067 47.344 9.53067 47.248 9.28C47.152 9.02933 47.008 8.816 46.816 8.64C46.624 8.464 46.3813 8.33067 46.088 8.24C45.7947 8.144 45.448 8.096 45.048 8.096H43.44V12.248H45.048ZM45.048 6.432C45.8213 6.432 46.4907 6.52267 47.056 6.704C47.6213 6.88533 48.088 7.13867 48.456 7.464C48.824 7.78933 49.096 8.17867 49.272 8.632C49.4533 9.08533 49.544 9.58133 49.544 10.12C49.544 10.68 49.4507 11.1947 49.264 11.664C49.0773 12.128 48.7973 12.528 48.424 12.864C48.0507 13.2 47.5813 13.4613 47.016 13.648C46.456 13.8347 45.8 13.928 45.048 13.928H43.44V18H41.288V6.432H45.048ZM53.051 6.112V18H51.075V6.112H53.051ZM59.5557 14.496C58.9851 14.5227 58.5051 14.5733 58.1157 14.648C57.7264 14.7173 57.4144 14.808 57.1797 14.92C56.9451 15.032 56.7771 15.1627 56.6757 15.312C56.5744 15.4613 56.5237 15.624 56.5237 15.8C56.5237 16.1467 56.6251 16.3947 56.8277 16.544C57.0357 16.6933 57.3051 16.768 57.6357 16.768C58.0411 16.768 58.3904 16.696 58.6837 16.552C58.9824 16.4027 59.2731 16.1787 59.5557 15.88V14.496ZM55.0277 10.936C55.9717 10.072 57.1077 9.64 58.4358 9.64C58.9157 9.64 59.3451 9.72 59.7238 9.88C60.1024 10.0347 60.4224 10.2533 60.6838 10.536C60.9451 10.8133 61.1424 11.1467 61.2758 11.536C61.4144 11.9253 61.4837 12.352 61.4837 12.816V18H60.5877C60.4011 18 60.2571 17.9733 60.1557 17.92C60.0544 17.8613 59.9744 17.7467 59.9158 17.576L59.7397 16.984C59.5317 17.1707 59.3291 17.336 59.1317 17.48C58.9344 17.6187 58.7291 17.736 58.5157 17.832C58.3024 17.928 58.0731 18 57.8277 18.048C57.5877 18.1013 57.3211 18.128 57.0277 18.128C56.6811 18.128 56.3611 18.0827 56.0677 17.992C55.7744 17.896 55.5211 17.7547 55.3077 17.568C55.0944 17.3813 54.9291 17.1493 54.8117 16.872C54.6944 16.5947 54.6357 16.272 54.6357 15.904C54.6357 15.696 54.6704 15.4907 54.7397 15.288C54.8091 15.08 54.9211 14.8827 55.0757 14.696C55.2357 14.5093 55.4411 14.3333 55.6917 14.168C55.9424 14.0027 56.2491 13.8587 56.6117 13.736C56.9797 13.6133 57.4064 13.5147 57.8917 13.44C58.3771 13.36 58.9317 13.312 59.5557 13.296V12.816C59.5557 12.2667 59.4384 11.8613 59.2037 11.6C58.9691 11.3333 58.6304 11.2 58.1877 11.2C57.8677 11.2 57.6011 11.2373 57.3877 11.312C57.1797 11.3867 56.9957 11.472 56.8357 11.568C56.6757 11.6587 56.5291 11.7413 56.3957 11.816C56.2677 11.8907 56.1237 11.928 55.9637 11.928C55.8251 11.928 55.7077 11.8933 55.6117 11.824C55.5157 11.7493 55.4384 11.664 55.3797 11.568L55.0277 10.936ZM65.3928 10.8C65.5581 10.6347 65.7314 10.4827 65.9128 10.344C66.0994 10.2 66.2941 10.08 66.4968 9.984C66.7048 9.88267 66.9261 9.80533 67.1608 9.752C67.3954 9.69333 67.6514 9.664 67.9288 9.664C68.3768 9.664 68.7741 9.74133 69.1208 9.896C69.4674 10.0453 69.7554 10.2587 69.9848 10.536C70.2194 10.808 70.3954 11.136 70.5128 11.52C70.6354 11.8987 70.6968 12.3173 70.6968 12.776V18H68.7208V12.776C68.7208 12.2747 68.6061 11.888 68.3768 11.616C68.1474 11.3387 67.7981 11.2 67.3288 11.2C66.9874 11.2 66.6674 11.2773 66.3688 11.432C66.0701 11.5867 65.7874 11.7973 65.5208 12.064V18H63.5448V9.792H64.7528C65.0088 9.792 65.1768 9.912 65.2568 10.152L65.3928 10.8ZM78.064 12.952C78.064 12.696 78.0267 12.456 77.952 12.232C77.8827 12.0027 77.776 11.8027 77.632 11.632C77.488 11.4613 77.304 11.328 77.08 11.232C76.8613 11.1307 76.6053 11.08 76.312 11.08C75.7413 11.08 75.2907 11.2427 74.96 11.568C74.6347 11.8933 74.4267 12.3547 74.336 12.952H78.064ZM74.296 14.144C74.328 14.5653 74.4027 14.9307 74.52 15.24C74.6373 15.544 74.792 15.7973 74.984 16C75.176 16.1973 75.4027 16.3467 75.664 16.448C75.9307 16.544 76.224 16.592 76.544 16.592C76.864 16.592 77.1387 16.5547 77.368 16.48C77.6027 16.4053 77.8053 16.3227 77.976 16.232C78.152 16.1413 78.304 16.0587 78.432 15.984C78.5653 15.9093 78.6933 15.872 78.816 15.872C78.9813 15.872 79.104 15.9333 79.184 16.056L79.752 16.776C79.5333 17.032 79.288 17.248 79.016 17.424C78.744 17.5947 78.4587 17.7333 78.16 17.84C77.8667 17.9413 77.5653 18.0133 77.256 18.056C76.952 18.0987 76.656 18.12 76.368 18.12C75.7973 18.12 75.2667 18.0267 74.776 17.84C74.2853 17.648 73.8587 17.368 73.496 17C73.1333 16.6267 72.848 16.168 72.64 15.624C72.432 15.0747 72.328 14.44 72.328 13.72C72.328 13.16 72.4187 12.6347 72.6 12.144C72.7813 11.648 73.04 11.2187 73.376 10.856C73.7173 10.488 74.1307 10.1973 74.616 9.984C75.1067 9.77067 75.6587 9.664 76.272 9.664C76.7893 9.664 77.2667 9.74667 77.704 9.912C78.1413 10.0773 78.5173 10.32 78.832 10.64C79.1467 10.9547 79.392 11.344 79.568 11.808C79.7493 12.2667 79.84 12.792 79.84 13.384C79.84 13.6827 79.808 13.8853 79.744 13.992C79.68 14.0933 79.5573 14.144 79.376 14.144H74.296ZM86.5309 11.392C86.4775 11.4773 86.4215 11.5387 86.3629 11.576C86.3042 11.608 86.2295 11.624 86.1389 11.624C86.0429 11.624 85.9389 11.5973 85.8269 11.544C85.7202 11.4907 85.5949 11.432 85.4509 11.368C85.3069 11.2987 85.1415 11.2373 84.9549 11.184C84.7735 11.1307 84.5575 11.104 84.3069 11.104C83.9175 11.104 83.6109 11.1867 83.3869 11.352C83.1682 11.5173 83.0589 11.7333 83.0589 12C83.0589 12.176 83.1149 12.3253 83.2269 12.448C83.3442 12.5653 83.4962 12.6693 83.6829 12.76C83.8749 12.8507 84.0909 12.9333 84.3309 13.008C84.5709 13.0773 84.8135 13.1547 85.0589 13.24C85.3095 13.3253 85.5549 13.424 85.7949 13.536C86.0349 13.6427 86.2482 13.7813 86.4349 13.952C86.6269 14.1173 86.7789 14.3173 86.8909 14.552C87.0082 14.7867 87.0669 15.0693 87.0669 15.4C87.0669 15.7947 86.9949 16.16 86.8509 16.496C86.7122 16.8267 86.5042 17.1147 86.2269 17.36C85.9495 17.6 85.6055 17.7893 85.1949 17.928C84.7895 18.0613 84.3202 18.128 83.7869 18.128C83.5042 18.128 83.2269 18.1013 82.9549 18.048C82.6882 18 82.4295 17.9307 82.1789 17.84C81.9335 17.7493 81.7042 17.6427 81.4909 17.52C81.2829 17.3973 81.0989 17.264 80.9389 17.12L81.3949 16.368C81.4535 16.2773 81.5229 16.208 81.6029 16.16C81.6829 16.112 81.7842 16.088 81.9069 16.088C82.0295 16.088 82.1442 16.1227 82.2509 16.192C82.3629 16.2613 82.4909 16.336 82.6349 16.416C82.7789 16.496 82.9469 16.5707 83.1389 16.64C83.3362 16.7093 83.5842 16.744 83.8829 16.744C84.1175 16.744 84.3175 16.7173 84.4829 16.664C84.6535 16.6053 84.7922 16.5307 84.8989 16.44C85.0109 16.3493 85.0909 16.2453 85.1389 16.128C85.1922 16.0053 85.2189 15.88 85.2189 15.752C85.2189 15.56 85.1602 15.4027 85.0429 15.28C84.9309 15.1573 84.7789 15.0507 84.5869 14.96C84.4002 14.8693 84.1842 14.7893 83.9389 14.72C83.6989 14.6453 83.4509 14.5653 83.1949 14.48C82.9442 14.3947 82.6962 14.296 82.4509 14.184C82.2109 14.0667 81.9949 13.92 81.8029 13.744C81.6162 13.568 81.4642 13.352 81.3469 13.096C81.2349 12.84 81.1789 12.5307 81.1789 12.168C81.1789 11.832 81.2455 11.512 81.3789 11.208C81.5122 10.904 81.7069 10.64 81.9629 10.416C82.2242 10.1867 82.5469 10.0053 82.9309 9.872C83.3202 9.73333 83.7682 9.664 84.2749 9.664C84.8402 9.664 85.3549 9.75733 85.8189 9.944C86.2829 10.1307 86.6695 10.376 86.9789 10.68L86.5309 11.392ZM99.8945 9.792L95.4225 20.256C95.3638 20.3947 95.2865 20.4987 95.1905 20.568C95.0998 20.6427 94.9585 20.68 94.7665 20.68H93.2945L94.8305 17.384L91.5105 9.792H93.2465C93.4012 9.792 93.5212 9.82933 93.6065 9.904C93.6972 9.97867 93.7638 10.064 93.8065 10.16L95.5505 14.416C95.6092 14.56 95.6572 14.704 95.6945 14.848C95.7372 14.992 95.7772 15.1387 95.8145 15.288C95.8625 15.1387 95.9105 14.992 95.9585 14.848C96.0065 14.6987 96.0598 14.552 96.1185 14.408L97.7665 10.16C97.8092 10.0533 97.8785 9.96533 97.9745 9.896C98.0758 9.82667 98.1878 9.792 98.3105 9.792H99.8945ZM110.64 11.528C110.582 11.6027 110.523 11.6613 110.464 11.704C110.411 11.7467 110.331 11.768 110.224 11.768C110.123 11.768 110.024 11.7387 109.928 11.68C109.832 11.616 109.718 11.5467 109.584 11.472C109.451 11.392 109.291 11.3227 109.104 11.264C108.923 11.2 108.696 11.168 108.424 11.168C108.078 11.168 107.774 11.232 107.512 11.36C107.251 11.4827 107.032 11.6613 106.856 11.896C106.686 12.1307 106.558 12.416 106.472 12.752C106.387 13.0827 106.344 13.4587 106.344 13.88C106.344 14.3173 106.39 14.7067 106.48 15.048C106.576 15.3893 106.712 15.6773 106.888 15.912C107.064 16.1413 107.278 16.3173 107.528 16.44C107.779 16.5573 108.062 16.616 108.376 16.616C108.691 16.616 108.944 16.5787 109.136 16.504C109.334 16.424 109.499 16.3387 109.632 16.248C109.766 16.152 109.88 16.0667 109.976 15.992C110.078 15.912 110.19 15.872 110.312 15.872C110.472 15.872 110.592 15.9333 110.672 16.056L111.24 16.776C111.022 17.032 110.784 17.248 110.528 17.424C110.272 17.5947 110.006 17.7333 109.728 17.84C109.456 17.9413 109.174 18.0133 108.88 18.056C108.592 18.0987 108.304 18.12 108.016 18.12C107.51 18.12 107.032 18.0267 106.584 17.84C106.136 17.648 105.744 17.3707 105.408 17.008C105.072 16.6453 104.806 16.2027 104.608 15.68C104.416 15.152 104.32 14.552 104.32 13.88C104.32 13.2773 104.406 12.72 104.576 12.208C104.752 11.6907 105.008 11.2453 105.344 10.872C105.68 10.4933 106.096 10.1973 106.592 9.984C107.088 9.77067 107.659 9.664 108.304 9.664C108.918 9.664 109.454 9.76267 109.912 9.96C110.376 10.1573 110.792 10.44 111.16 10.808L110.64 11.528ZM116.171 9.664C116.779 9.664 117.331 9.76267 117.827 9.96C118.328 10.1573 118.755 10.4373 119.107 10.8C119.464 11.1627 119.738 11.6053 119.931 12.128C120.123 12.6507 120.219 13.2347 120.219 13.88C120.219 14.5307 120.123 15.1173 119.931 15.64C119.738 16.1627 119.464 16.608 119.107 16.976C118.755 17.344 118.328 17.6267 117.827 17.824C117.331 18.0213 116.779 18.12 116.171 18.12C115.557 18.12 115 18.0213 114.499 17.824C113.997 17.6267 113.568 17.344 113.211 16.976C112.859 16.608 112.584 16.1627 112.387 15.64C112.195 15.1173 112.099 14.5307 112.099 13.88C112.099 13.2347 112.195 12.6507 112.387 12.128C112.584 11.6053 112.859 11.1627 113.211 10.8C113.568 10.4373 113.997 10.1573 114.499 9.96C115 9.76267 115.557 9.664 116.171 9.664ZM116.171 16.6C116.853 16.6 117.357 16.3707 117.683 15.912C118.013 15.4533 118.179 14.7813 118.179 13.896C118.179 13.0107 118.013 12.336 117.683 11.872C117.357 11.408 116.853 11.176 116.171 11.176C115.477 11.176 114.963 11.4107 114.627 11.88C114.296 12.344 114.131 13.016 114.131 13.896C114.131 14.776 114.296 15.448 114.627 15.912C114.963 16.3707 115.477 16.6 116.171 16.6ZM123.902 15.872C124.126 16.144 124.369 16.336 124.63 16.448C124.897 16.56 125.177 16.616 125.47 16.616C125.774 16.616 126.046 16.5627 126.286 16.456C126.531 16.344 126.739 16.1733 126.91 15.944C127.081 15.7093 127.211 15.4133 127.302 15.056C127.393 14.6933 127.438 14.2613 127.438 13.76C127.438 12.8587 127.289 12.208 126.99 11.808C126.691 11.4027 126.262 11.2 125.702 11.2C125.323 11.2 124.993 11.288 124.71 11.464C124.427 11.6347 124.158 11.8773 123.902 12.192V15.872ZM123.902 10.8C124.233 10.4533 124.598 10.1787 124.998 9.976C125.403 9.768 125.865 9.664 126.382 9.664C126.857 9.664 127.283 9.75733 127.662 9.944C128.046 10.1307 128.371 10.4 128.638 10.752C128.91 11.0987 129.118 11.52 129.262 12.016C129.406 12.512 129.478 13.0693 129.478 13.688C129.478 14.3547 129.395 14.96 129.23 15.504C129.065 16.048 128.827 16.5147 128.518 16.904C128.214 17.288 127.846 17.5867 127.414 17.8C126.982 18.0133 126.502 18.12 125.974 18.12C125.718 18.12 125.486 18.0933 125.278 18.04C125.07 17.992 124.878 17.9227 124.702 17.832C124.526 17.7413 124.363 17.632 124.214 17.504C124.07 17.3707 123.931 17.224 123.798 17.064L123.71 17.616C123.678 17.7547 123.622 17.8533 123.542 17.912C123.467 17.9707 123.363 18 123.23 18H121.926V6.112H123.902V10.8ZM136.492 12.952C136.492 12.696 136.455 12.456 136.38 12.232C136.311 12.0027 136.204 11.8027 136.06 11.632C135.916 11.4613 135.732 11.328 135.508 11.232C135.289 11.1307 135.033 11.08 134.74 11.08C134.169 11.08 133.719 11.2427 133.388 11.568C133.063 11.8933 132.855 12.3547 132.764 12.952H136.492ZM132.724 14.144C132.756 14.5653 132.831 14.9307 132.948 15.24C133.065 15.544 133.22 15.7973 133.412 16C133.604 16.1973 133.831 16.3467 134.092 16.448C134.359 16.544 134.652 16.592 134.972 16.592C135.292 16.592 135.567 16.5547 135.796 16.48C136.031 16.4053 136.233 16.3227 136.404 16.232C136.58 16.1413 136.732 16.0587 136.86 15.984C136.993 15.9093 137.121 15.872 137.244 15.872C137.409 15.872 137.532 15.9333 137.612 16.056L138.18 16.776C137.961 17.032 137.716 17.248 137.444 17.424C137.172 17.5947 136.887 17.7333 136.588 17.84C136.295 17.9413 135.993 18.0133 135.684 18.056C135.38 18.0987 135.084 18.12 134.796 18.12C134.225 18.12 133.695 18.0267 133.204 17.84C132.713 17.648 132.287 17.368 131.924 17C131.561 16.6267 131.276 16.168 131.068 15.624C130.86 15.0747 130.756 14.44 130.756 13.72C130.756 13.16 130.847 12.6347 131.028 12.144C131.209 11.648 131.468 11.2187 131.804 10.856C132.145 10.488 132.559 10.1973 133.044 9.984C133.535 9.77067 134.087 9.664 134.7 9.664C135.217 9.664 135.695 9.74667 136.132 9.912C136.569 10.0773 136.945 10.32 137.26 10.64C137.575 10.9547 137.82 11.344 137.996 11.808C138.177 12.2667 138.268 12.792 138.268 13.384C138.268 13.6827 138.236 13.8853 138.172 13.992C138.108 14.0933 137.985 14.144 137.804 14.144H132.724ZM141.815 11.216C142.071 10.7253 142.375 10.3413 142.727 10.064C143.079 9.78133 143.495 9.64 143.975 9.64C144.354 9.64 144.658 9.72267 144.887 9.888L144.759 11.368C144.732 11.464 144.692 11.5333 144.639 11.576C144.591 11.6133 144.524 11.632 144.439 11.632C144.359 11.632 144.239 11.6187 144.079 11.592C143.924 11.5653 143.772 11.552 143.623 11.552C143.404 11.552 143.21 11.584 143.039 11.648C142.868 11.712 142.714 11.8053 142.575 11.928C142.442 12.0453 142.322 12.1893 142.215 12.36C142.114 12.5307 142.018 12.7253 141.927 12.944V18H139.951V9.792H141.111C141.314 9.792 141.455 9.82933 141.535 9.904C141.615 9.97333 141.668 10.1013 141.695 10.288L141.815 11.216ZM148.856 18.128C148.141 18.128 147.592 17.928 147.208 17.528C146.829 17.1227 146.64 16.5653 146.64 15.856V11.272H145.8C145.693 11.272 145.602 11.2373 145.528 11.168C145.453 11.0987 145.416 10.9947 145.416 10.856V10.072L146.736 9.856L147.152 7.616C147.178 7.50933 147.229 7.42667 147.304 7.368C147.378 7.30933 147.474 7.28 147.592 7.28H148.616V9.864H150.808V11.272H148.616V15.72C148.616 15.976 148.677 16.176 148.8 16.32C148.928 16.464 149.101 16.536 149.32 16.536C149.442 16.536 149.544 16.5227 149.624 16.496C149.709 16.464 149.781 16.432 149.84 16.4C149.904 16.368 149.96 16.3387 150.008 16.312C150.056 16.28 150.104 16.264 150.152 16.264C150.21 16.264 150.258 16.28 150.296 16.312C150.333 16.3387 150.373 16.3813 150.416 16.44L151.008 17.4C150.72 17.64 150.389 17.8213 150.016 17.944C149.642 18.0667 149.256 18.128 148.856 18.128ZM159.345 9.792V18H158.137C157.876 18 157.71 17.88 157.641 17.64L157.505 16.984C157.169 17.3253 156.798 17.6027 156.393 17.816C155.988 18.024 155.51 18.128 154.961 18.128C154.513 18.128 154.116 18.0533 153.769 17.904C153.428 17.7493 153.14 17.5333 152.905 17.256C152.67 16.9787 152.492 16.6507 152.369 16.272C152.252 15.888 152.193 15.4667 152.193 15.008V9.792H154.169V15.008C154.169 15.5093 154.284 15.8987 154.513 16.176C154.748 16.448 155.097 16.584 155.561 16.584C155.902 16.584 156.222 16.5093 156.521 16.36C156.82 16.2053 157.102 15.9947 157.369 15.728V9.792H159.345ZM163.368 11.216C163.624 10.7253 163.928 10.3413 164.28 10.064C164.632 9.78133 165.048 9.64 165.528 9.64C165.907 9.64 166.211 9.72267 166.44 9.888L166.312 11.368C166.285 11.464 166.245 11.5333 166.192 11.576C166.144 11.6133 166.077 11.632 165.992 11.632C165.912 11.632 165.792 11.6187 165.632 11.592C165.477 11.5653 165.325 11.552 165.176 11.552C164.957 11.552 164.763 11.584 164.592 11.648C164.421 11.712 164.267 11.8053 164.128 11.928C163.995 12.0453 163.875 12.1893 163.768 12.36C163.667 12.5307 163.571 12.7253 163.48 12.944V18H161.504V9.792H162.664C162.867 9.792 163.008 9.82933 163.088 9.904C163.168 9.97333 163.221 10.1013 163.248 10.288L163.368 11.216ZM171.9 14.496C171.329 14.5227 170.849 14.5733 170.46 14.648C170.07 14.7173 169.758 14.808 169.524 14.92C169.289 15.032 169.121 15.1627 169.02 15.312C168.918 15.4613 168.868 15.624 168.868 15.8C168.868 16.1467 168.969 16.3947 169.172 16.544C169.38 16.6933 169.649 16.768 169.98 16.768C170.385 16.768 170.734 16.696 171.028 16.552C171.326 16.4027 171.617 16.1787 171.9 15.88V14.496ZM167.372 10.936C168.316 10.072 169.452 9.64 170.78 9.64C171.26 9.64 171.689 9.72 172.068 9.88C172.446 10.0347 172.766 10.2533 173.028 10.536C173.289 10.8133 173.486 11.1467 173.62 11.536C173.758 11.9253 173.828 12.352 173.828 12.816V18H172.932C172.745 18 172.601 17.9733 172.5 17.92C172.398 17.8613 172.318 17.7467 172.26 17.576L172.084 16.984C171.876 17.1707 171.673 17.336 171.476 17.48C171.278 17.6187 171.073 17.736 170.86 17.832C170.646 17.928 170.417 18 170.172 18.048C169.932 18.1013 169.665 18.128 169.372 18.128C169.025 18.128 168.705 18.0827 168.412 17.992C168.118 17.896 167.865 17.7547 167.652 17.568C167.438 17.3813 167.273 17.1493 167.156 16.872C167.038 16.5947 166.98 16.272 166.98 15.904C166.98 15.696 167.014 15.4907 167.084 15.288C167.153 15.08 167.265 14.8827 167.42 14.696C167.58 14.5093 167.785 14.3333 168.036 14.168C168.286 14.0027 168.593 13.8587 168.956 13.736C169.324 13.6133 169.75 13.5147 170.236 13.44C170.721 13.36 171.276 13.312 171.9 13.296V12.816C171.9 12.2667 171.782 11.8613 171.548 11.6C171.313 11.3333 170.974 11.2 170.532 11.2C170.212 11.2 169.945 11.2373 169.732 11.312C169.524 11.3867 169.34 11.472 169.18 11.568C169.02 11.6587 168.873 11.7413 168.74 11.816C168.612 11.8907 168.468 11.928 168.308 11.928C168.169 11.928 168.052 11.8933 167.956 11.824C167.86 11.7493 167.782 11.664 167.724 11.568L167.372 10.936ZM180.897 11.392C180.843 11.4773 180.787 11.5387 180.729 11.576C180.67 11.608 180.595 11.624 180.505 11.624C180.409 11.624 180.305 11.5973 180.193 11.544C180.086 11.4907 179.961 11.432 179.817 11.368C179.673 11.2987 179.507 11.2373 179.321 11.184C179.139 11.1307 178.923 11.104 178.673 11.104C178.283 11.104 177.977 11.1867 177.753 11.352C177.534 11.5173 177.425 11.7333 177.425 12C177.425 12.176 177.481 12.3253 177.593 12.448C177.71 12.5653 177.862 12.6693 178.049 12.76C178.241 12.8507 178.457 12.9333 178.697 13.008C178.937 13.0773 179.179 13.1547 179.425 13.24C179.675 13.3253 179.921 13.424 180.161 13.536C180.401 13.6427 180.614 13.7813 180.801 13.952C180.993 14.1173 181.145 14.3173 181.257 14.552C181.374 14.7867 181.433 15.0693 181.433 15.4C181.433 15.7947 181.361 16.16 181.217 16.496C181.078 16.8267 180.87 17.1147 180.593 17.36C180.315 17.6 179.971 17.7893 179.561 17.928C179.155 18.0613 178.686 18.128 178.153 18.128C177.87 18.128 177.593 18.1013 177.321 18.048C177.054 18 176.795 17.9307 176.545 17.84C176.299 17.7493 176.07 17.6427 175.857 17.52C175.649 17.3973 175.465 17.264 175.305 17.12L175.761 16.368C175.819 16.2773 175.889 16.208 175.969 16.16C176.049 16.112 176.15 16.088 176.273 16.088C176.395 16.088 176.51 16.1227 176.617 16.192C176.729 16.2613 176.857 16.336 177.001 16.416C177.145 16.496 177.313 16.5707 177.505 16.64C177.702 16.7093 177.95 16.744 178.249 16.744C178.483 16.744 178.683 16.7173 178.849 16.664C179.019 16.6053 179.158 16.5307 179.265 16.44C179.377 16.3493 179.457 16.2453 179.505 16.128C179.558 16.0053 179.585 15.88 179.585 15.752C179.585 15.56 179.526 15.4027 179.409 15.28C179.297 15.1573 179.145 15.0507 178.953 14.96C178.766 14.8693 178.55 14.7893 178.305 14.72C178.065 14.6453 177.817 14.5653 177.561 14.48C177.31 14.3947 177.062 14.296 176.817 14.184C176.577 14.0667 176.361 13.92 176.169 13.744C175.982 13.568 175.83 13.352 175.713 13.096C175.601 12.84 175.545 12.5307 175.545 12.168C175.545 11.832 175.611 11.512 175.745 11.208C175.878 10.904 176.073 10.64 176.329 10.416C176.59 10.1867 176.913 10.0053 177.297 9.872C177.686 9.73333 178.134 9.664 178.641 9.664C179.206 9.664 179.721 9.75733 180.185 9.944C180.649 10.1307 181.035 10.376 181.345 10.68L180.897 11.392Z" fill="#141938"/>
<line x1="199" y1="11.5" x2="229" y2="11.5" stroke="#4F4FFF" stroke-width="2" stroke-linecap="round" stroke-linejoin="round" stroke-dasharray="2 8"/>
<circle cx="258" cy="12" r="11.5" stroke="#7981B2"/>
<path d="M260.406 15.62C260.566 15.62 260.692 15.666 260.784 15.758C260.88 15.846 260.928 15.964 260.928 16.112V17H254.976V16.508C254.976 16.408 254.996 16.304 255.036 16.196C255.08 16.084 255.148 15.984 255.24 15.896L257.874 13.256C258.094 13.032 258.29 12.818 258.462 12.614C258.638 12.41 258.784 12.208 258.9 12.008C259.016 11.808 259.104 11.606 259.164 11.402C259.228 11.194 259.26 10.976 259.26 10.748C259.26 10.54 259.23 10.358 259.17 10.202C259.11 10.042 259.024 9.908 258.912 9.8C258.804 9.692 258.672 9.612 258.516 9.56C258.364 9.504 258.192 9.476 258 9.476C257.824 9.476 257.66 9.502 257.508 9.554C257.36 9.602 257.228 9.672 257.112 9.764C256.996 9.852 256.898 9.956 256.818 10.076C256.738 10.196 256.678 10.328 256.638 10.472C256.57 10.656 256.482 10.778 256.374 10.838C256.266 10.898 256.11 10.912 255.906 10.88L255.126 10.742C255.186 10.326 255.302 9.962 255.474 9.65C255.646 9.334 255.86 9.072 256.116 8.864C256.376 8.652 256.672 8.494 257.004 8.39C257.34 8.282 257.7 8.228 258.084 8.228C258.484 8.228 258.85 8.288 259.182 8.408C259.514 8.524 259.798 8.69 260.034 8.906C260.27 9.122 260.454 9.382 260.586 9.686C260.718 9.99 260.784 10.328 260.784 10.7C260.784 11.02 260.736 11.316 260.64 11.588C260.548 11.86 260.422 12.12 260.262 12.368C260.106 12.616 259.922 12.856 259.71 13.088C259.498 13.32 259.276 13.556 259.044 13.796L257.088 15.794C257.276 15.738 257.462 15.696 257.646 15.668C257.834 15.636 258.012 15.62 258.18 15.62H260.406Z" fill="#7981B2"/>
<path d="M290.64 12.088C291.088 12.088 291.483 12.0347 291.824 11.928C292.171 11.816 292.459 11.6613 292.688 11.464C292.923 11.2613 293.099 11.0213 293.216 10.744C293.333 10.4667 293.392 10.16 293.392 9.824C293.392 9.14133 293.168 8.62667 292.72 8.28C292.272 7.93333 291.6 7.76 290.704 7.76H289.008V12.088H290.64ZM295.936 18H294.56C294.277 18 294.069 17.8907 293.936 17.672L290.96 13.576C290.869 13.448 290.771 13.3573 290.664 13.304C290.563 13.2453 290.403 13.216 290.184 13.216H289.008V18H287.464V6.536H290.704C291.429 6.536 292.056 6.61067 292.584 6.76C293.112 6.904 293.547 7.11467 293.888 7.392C294.235 7.66933 294.491 8.00533 294.656 8.4C294.821 8.78933 294.904 9.22667 294.904 9.712C294.904 10.1173 294.84 10.496 294.712 10.848C294.584 11.2 294.397 11.5173 294.152 11.8C293.912 12.0773 293.616 12.3147 293.264 12.512C292.917 12.7093 292.523 12.8587 292.08 12.96C292.277 13.072 292.448 13.2347 292.592 13.448L295.936 18ZM302.268 13.064C302.268 12.7333 302.22 12.432 302.124 12.16C302.033 11.8827 301.897 11.6453 301.716 11.448C301.54 11.2453 301.324 11.0907 301.068 10.984C300.812 10.872 300.521 10.816 300.196 10.816C299.513 10.816 298.972 11.016 298.572 11.416C298.177 11.8107 297.932 12.36 297.836 13.064H302.268ZM303.42 16.864C303.244 17.0773 303.033 17.264 302.788 17.424C302.542 17.5787 302.278 17.7067 301.996 17.808C301.718 17.9093 301.43 17.984 301.132 18.032C300.833 18.0853 300.537 18.112 300.244 18.112C299.684 18.112 299.166 18.0187 298.692 17.832C298.222 17.64 297.814 17.3627 297.468 17C297.126 16.632 296.86 16.1787 296.668 15.64C296.476 15.1013 296.38 14.4827 296.38 13.784C296.38 13.2187 296.465 12.6907 296.636 12.2C296.812 11.7093 297.062 11.2853 297.388 10.928C297.713 10.5653 298.11 10.2827 298.58 10.08C299.049 9.872 299.577 9.768 300.164 9.768C300.649 9.768 301.097 9.85067 301.508 10.016C301.924 10.176 302.281 10.4107 302.58 10.72C302.884 11.024 303.121 11.4027 303.292 11.856C303.462 12.304 303.548 12.816 303.548 13.392C303.548 13.616 303.524 13.7653 303.476 13.84C303.428 13.9147 303.337 13.952 303.204 13.952H297.788C297.804 14.464 297.873 14.9093 297.996 15.288C298.124 15.6667 298.3 15.984 298.524 16.24C298.748 16.4907 299.014 16.68 299.324 16.808C299.633 16.9307 299.98 16.992 300.364 16.992C300.721 16.992 301.028 16.952 301.284 16.872C301.545 16.7867 301.769 16.696 301.956 16.6C302.142 16.504 302.297 16.416 302.42 16.336C302.548 16.2507 302.657 16.208 302.748 16.208C302.865 16.208 302.956 16.2533 303.02 16.344L303.42 16.864ZM310.217 11.232C310.153 11.3493 310.054 11.408 309.921 11.408C309.841 11.408 309.75 11.3787 309.649 11.32C309.547 11.2613 309.422 11.1973 309.273 11.128C309.129 11.0533 308.955 10.9867 308.753 10.928C308.55 10.864 308.31 10.832 308.033 10.832C307.793 10.832 307.577 10.864 307.385 10.928C307.193 10.9867 307.027 11.0693 306.889 11.176C306.755 11.2827 306.651 11.408 306.577 11.552C306.507 11.6907 306.473 11.8427 306.473 12.008C306.473 12.216 306.531 12.3893 306.649 12.528C306.771 12.6667 306.931 12.7867 307.129 12.888C307.326 12.9893 307.55 13.08 307.801 13.16C308.051 13.2347 308.307 13.3173 308.569 13.408C308.835 13.4933 309.094 13.5893 309.345 13.696C309.595 13.8027 309.819 13.936 310.017 14.096C310.214 14.256 310.371 14.4533 310.489 14.688C310.611 14.9173 310.673 15.1947 310.673 15.52C310.673 15.8933 310.606 16.24 310.473 16.56C310.339 16.8747 310.142 17.1493 309.881 17.384C309.619 17.6133 309.299 17.7947 308.921 17.928C308.542 18.0613 308.105 18.128 307.609 18.128C307.043 18.128 306.531 18.0373 306.073 17.856C305.614 17.6693 305.225 17.432 304.905 17.144L305.241 16.6C305.283 16.5307 305.334 16.4773 305.393 16.44C305.451 16.4027 305.526 16.384 305.617 16.384C305.713 16.384 305.814 16.4213 305.921 16.496C306.027 16.5707 306.155 16.6533 306.305 16.744C306.459 16.8347 306.646 16.9173 306.865 16.992C307.083 17.0667 307.355 17.104 307.681 17.104C307.958 17.104 308.201 17.0693 308.409 17C308.617 16.9253 308.79 16.8267 308.929 16.704C309.067 16.5813 309.169 16.44 309.233 16.28C309.302 16.12 309.337 15.9493 309.337 15.768C309.337 15.544 309.275 15.36 309.153 15.216C309.035 15.0667 308.878 14.9413 308.681 14.84C308.483 14.7333 308.257 14.6427 308.001 14.568C307.75 14.488 307.491 14.4053 307.225 14.32C306.963 14.2347 306.705 14.1387 306.449 14.032C306.198 13.92 305.974 13.7813 305.777 13.616C305.579 13.4507 305.419 13.248 305.297 13.008C305.179 12.7627 305.121 12.4667 305.121 12.12C305.121 11.8107 305.185 11.5147 305.313 11.232C305.441 10.944 305.627 10.6933 305.873 10.48C306.118 10.2613 306.419 10.088 306.777 9.96C307.134 9.832 307.542 9.768 308.001 9.768C308.534 9.768 309.011 9.85333 309.433 10.024C309.859 10.1893 310.227 10.4187 310.537 10.712L310.217 11.232ZM319.283 9.896V18H318.435C318.232 18 318.104 17.9013 318.051 17.704L317.939 16.832C317.587 17.2213 317.192 17.536 316.755 17.776C316.317 18.0107 315.816 18.128 315.251 18.128C314.808 18.128 314.416 18.056 314.075 17.912C313.739 17.7627 313.456 17.5547 313.227 17.288C312.997 17.0213 312.824 16.6987 312.707 16.32C312.595 15.9413 312.539 15.5227 312.539 15.064V9.896H313.963V15.064C313.963 15.6773 314.101 16.152 314.379 16.488C314.661 16.824 315.091 16.992 315.667 16.992C316.088 16.992 316.48 16.8933 316.843 16.696C317.211 16.4933 317.549 16.216 317.859 15.864V9.896H319.283ZM321.74 18V9.896H322.596C322.799 9.896 322.924 9.99467 322.972 10.192L323.076 11.024C323.375 10.656 323.711 10.3547 324.084 10.12C324.458 9.88533 324.89 9.768 325.38 9.768C325.924 9.768 326.364 9.92 326.7 10.224C327.042 10.528 327.287 10.9387 327.436 11.456C327.554 11.1627 327.703 10.9093 327.884 10.696C328.071 10.4827 328.279 10.3067 328.508 10.168C328.738 10.0293 328.98 9.928 329.236 9.864C329.498 9.8 329.762 9.768 330.028 9.768C330.455 9.768 330.834 9.83733 331.164 9.976C331.5 10.1093 331.783 10.3067 332.012 10.568C332.247 10.8293 332.426 11.152 332.549 11.536C332.671 11.9147 332.733 12.3493 332.733 12.84V18H331.3V12.84C331.3 12.2053 331.162 11.7253 330.884 11.4C330.607 11.0693 330.207 10.904 329.684 10.904C329.45 10.904 329.226 10.9467 329.012 11.032C328.804 11.112 328.62 11.232 328.46 11.392C328.3 11.552 328.172 11.7547 328.076 12C327.986 12.24 327.94 12.52 327.94 12.84V18H326.508V12.84C326.508 12.1893 326.378 11.704 326.116 11.384C325.855 11.064 325.474 10.904 324.972 10.904C324.62 10.904 324.295 11 323.996 11.192C323.698 11.3787 323.423 11.6347 323.172 11.96V18H321.74ZM340.521 13.064C340.521 12.7333 340.473 12.432 340.377 12.16C340.286 11.8827 340.15 11.6453 339.969 11.448C339.793 11.2453 339.577 11.0907 339.321 10.984C339.065 10.872 338.774 10.816 338.449 10.816C337.766 10.816 337.225 11.016 336.825 11.416C336.43 11.8107 336.185 12.36 336.089 13.064H340.521ZM341.673 16.864C341.497 17.0773 341.286 17.264 341.041 17.424C340.795 17.5787 340.531 17.7067 340.249 17.808C339.971 17.9093 339.683 17.984 339.385 18.032C339.086 18.0853 338.79 18.112 338.497 18.112C337.937 18.112 337.419 18.0187 336.945 17.832C336.475 17.64 336.067 17.3627 335.721 17C335.379 16.632 335.113 16.1787 334.921 15.64C334.729 15.1013 334.633 14.4827 334.633 13.784C334.633 13.2187 334.718 12.6907 334.889 12.2C335.065 11.7093 335.315 11.2853 335.641 10.928C335.966 10.5653 336.363 10.2827 336.833 10.08C337.302 9.872 337.83 9.768 338.417 9.768C338.902 9.768 339.35 9.85067 339.761 10.016C340.177 10.176 340.534 10.4107 340.833 10.72C341.137 11.024 341.374 11.4027 341.545 11.856C341.715 12.304 341.801 12.816 341.801 13.392C341.801 13.616 341.777 13.7653 341.729 13.84C341.681 13.9147 341.59 13.952 341.457 13.952H336.041C336.057 14.464 336.126 14.9093 336.249 15.288C336.377 15.6667 336.553 15.984 336.777 16.24C337.001 16.4907 337.267 16.68 337.577 16.808C337.886 16.9307 338.233 16.992 338.617 16.992C338.974 16.992 339.281 16.952 339.537 16.872C339.798 16.7867 340.022 16.696 340.209 16.6C340.395 16.504 340.55 16.416 340.673 16.336C340.801 16.2507 340.91 16.208 341.001 16.208C341.118 16.208 341.209 16.2533 341.273 16.344L341.673 16.864ZM345.094 11.072C345.27 10.8747 345.457 10.696 345.654 10.536C345.851 10.376 346.059 10.24 346.278 10.128C346.502 10.0107 346.737 9.92267 346.982 9.864C347.233 9.8 347.502 9.768 347.79 9.768C348.233 9.768 348.622 9.84267 348.958 9.992C349.299 10.136 349.582 10.344 349.806 10.616C350.035 10.8827 350.209 11.2053 350.326 11.584C350.443 11.9627 350.502 12.3813 350.502 12.84V18H349.07V12.84C349.07 12.2267 348.929 11.752 348.646 11.416C348.369 11.0747 347.945 10.904 347.374 10.904C346.953 10.904 346.558 11.0053 346.19 11.208C345.827 11.4107 345.491 11.6853 345.182 12.032V18H343.75V9.896H344.606C344.809 9.896 344.934 9.99467 344.982 10.192L345.094 11.072Z" fill="#7981B2"/>
</svg>
