<svg width="138" height="20" viewBox="0 0 138 20" fill="none" xmlns="http://www.w3.org/2000/svg">
<path d="M115.436 4.79274C114.871 4.83792 114.284 5.07287 113.676 5.859L104.927 17.6751H108.522L110.306 15.0306H116.837L117.514 17.6811H121.024L117.645 6.44934C117.189 5.07286 116.323 4.71443 115.436 4.79274ZM111.816 12.8528L115.211 8.39509L116.274 12.8528H111.816Z" fill="white"/>
<path d="M133.561 6.97233C134.834 6.96211 136.104 7.09646 137.345 7.37267L138 4.77516C136.683 4.50735 135.343 4.36425 133.999 4.34778C127.646 4.34778 123.615 7.18301 123.119 11.3999C122.681 15.1352 125.415 17.826 131.302 17.826C132.533 17.8198 133.762 17.7121 134.975 17.504L135.686 14.6686C134.274 15.0646 132.809 15.2453 131.342 15.2044C128.348 15.1623 126.639 13.5279 126.887 11.457C127.212 8.6458 129.857 6.94524 133.561 6.97233Z" fill="white"/>
<path d="M100.523 2.1861C99.7077 2.16499 99.1121 2.44554 98.4124 3.36872L90.1625 14.2449L86.9877 3.60412C86.6577 2.52708 85.9335 2.16799 85.2705 2.17402C84.2652 2.17402 83.7581 2.58746 83.2265 3.50159L75.9512 17.6812H80.0212L84.9437 7.90017L88.0204 17.6812H91.4029L98.837 7.95762L98.8003 17.6812H102.293L102.265 4.05062C102.274 2.73826 101.397 2.20722 100.523 2.1861Z" fill="white"/>
<path d="M68.0488 17.6812H71.7363L74.0785 8.10418L74.9269 4.6377H71.2848L68.0488 17.6812Z" fill="white"/>
<path d="M61.049 4.6377H53.9717L50.7805 17.6812H54.41L55.6199 12.7834H57.483L60.7014 17.6812H64.6543L61.049 12.4882C64.249 11.7029 65.3378 10.0865 65.5375 8.35442C65.7371 6.62238 64.7027 4.6377 61.049 4.6377ZM61.9112 8.54007C61.763 9.81551 60.4955 10.5674 58.7322 10.5674H56.1462L57.1112 6.63459H59.8333C61.3002 6.63459 62.0534 7.3042 61.9112 8.54007Z" fill="white"/>
<path d="M45.7834 3.93904C45.5468 3.49666 45.225 3.10492 44.8362 2.78619C44.4473 2.46747 43.9991 2.22798 43.5172 2.08144C43.0352 1.9349 42.529 1.88412 42.0273 1.93208C41.5257 1.98003 41.0383 2.12576 40.5933 2.36091L21.7349 12.3756L25.612 1.95741L25.652 1.84806C25.7466 1.59164 25.762 1.31301 25.6967 1.04773C25.6313 0.782451 25.488 0.542645 25.2849 0.358685C25.0819 0.174725 24.8284 0.0550084 24.5566 0.0149041C24.2848 -0.0252002 24.0071 0.0160647 23.759 0.133449L0.482765 11.177C0.281005 11.2772 0.126051 11.4512 0.0504536 11.6624C-0.0251439 11.8737 -0.0154564 12.1057 0.0772867 12.3101C0.17003 12.5145 0.338719 12.6753 0.548059 12.7588C0.757399 12.8423 0.990964 12.842 1.2001 12.7581L21.35 4.18488L14.9968 16.5423C14.8411 16.848 14.7528 17.1832 14.738 17.5255C14.7233 17.8678 14.7824 18.2093 14.9112 18.5271C15.0298 18.8153 15.2044 19.0775 15.425 19.2986C15.6455 19.5198 15.9079 19.6954 16.1969 19.8158C16.4858 19.9361 16.7956 19.9987 17.1089 20C17.4221 20.0012 17.7325 19.941 18.0224 19.8229L18.2696 19.7229L43.8693 9.28928C43.9897 9.24211 44.1068 9.18736 44.2202 9.12539C45.1191 8.64339 45.7887 7.82644 46.0818 6.85392C46.3749 5.8814 46.2676 4.83293 45.7834 3.93904Z" fill="white"/>
</svg>
