<svg width="86" height="42" viewBox="0 0 86 42" fill="none" xmlns="http://www.w3.org/2000/svg">
<g clip-path="url(#clip0_1_3877)">
<path d="M10.1241 28.1537H3.14507L0.0141602 41.7695H3.57485L4.75321 36.6465H6.59191L9.76266 41.7695H13.6621L10.1071 36.3476C13.2607 35.528 14.3338 33.8374 14.533 32.0301C14.7323 30.2228 13.7247 28.1508 10.1213 28.1508L10.1241 28.1537ZM10.978 32.2265C10.83 33.5584 9.5805 34.344 7.84712 34.344H5.28547L6.23612 30.237H8.93724C10.3689 30.237 11.1146 30.9372 10.9752 32.2265H10.978ZM20.0861 28.1565H23.6696L22.8356 31.7711L20.5301 41.7638H16.9068L20.0861 28.1565ZM50.3876 27.4023L50.4132 41.7609H46.9977L47.0347 31.5149L39.7795 41.7609H36.4693L33.4665 31.458L28.6591 41.7609H24.6885L31.79 26.816C32.3052 25.8512 32.8033 25.4214 33.7824 25.4157C34.4314 25.4157 35.1372 25.7886 35.4589 26.9213L38.5585 38.1321L46.622 26.6737C47.3079 25.7032 47.8857 25.4072 48.6827 25.4271C49.5366 25.4499 50.3904 26.0106 50.3904 27.4023H50.3876ZM74.5496 35.2718C74.3077 37.4605 75.9728 39.1852 78.8874 39.2279C80.3196 39.2678 81.7489 39.0756 83.1198 38.6587L82.4281 41.6499C81.2489 41.8687 80.0526 41.983 78.8532 41.9915C73.1208 41.9915 70.4567 39.1454 70.8836 35.2035C71.3675 30.7522 75.2954 27.7581 81.4832 27.7581C82.7972 27.7777 84.1058 27.9322 85.3883 28.2191L84.7621 30.96C83.5507 30.6683 82.3079 30.5268 81.0619 30.5387C77.4528 30.5103 74.8741 32.3119 74.5525 35.2718H74.5496ZM59.7689 36.6749L63.1019 31.9703L64.1436 36.6749H59.7689ZM65.3619 41.7638H68.8229L65.5099 29.9097C65.0772 28.4725 64.2262 28.0939 63.341 28.1708C62.786 28.2192 62.2025 28.4554 61.6162 29.295L53.0204 41.7666H56.5469L58.2945 38.9774H64.7015L65.3675 41.7752L65.3619 41.7638ZM71.45 11.3104C70.7242 11.558 38.6951 20.418 38.2254 20.529C37.9073 20.6281 37.5686 20.6413 37.2437 20.5673C36.9188 20.4934 36.6192 20.3348 36.3754 20.1077C35.5215 19.3308 35.8716 18.2521 36.1135 17.7056C36.3981 17.0624 42.566 4.08701 42.566 4.08701L17.9429 14.4098C16.9154 14.7684 16.5653 13.9232 16.5653 13.9232C16.5653 13.9232 16.1355 12.9868 17.2569 12.4574L44.2966 0.313072C44.7406 0.113845 45.5745 -0.278918 46.2235 0.313072C46.8724 0.905063 46.6191 1.79874 46.4199 2.35088C46.3231 2.61273 41.8943 14.9136 41.8943 14.9136C41.8943 14.9136 68.2537 3.60317 69.1076 3.28156C70.7783 2.64688 72.2982 3.02257 73.377 4.28054C73.8581 4.8562 74.1934 5.53934 74.3544 6.27209C74.5155 7.00484 74.4975 7.76561 74.302 8.48994C73.9292 9.76215 73.1066 10.7355 71.4557 11.299L71.45 11.3104Z" fill="white"/>
</g>
<defs>
<clipPath id="clip0_1_3877">
<rect width="85.3883" height="42" fill="white"/>
</clipPath>
</defs>
</svg>
